<svg width="24" height="24" viewBox="0 0 24 24" fill="none" xmlns="http://www.w3.org/2000/svg">
<path fill-rule="evenodd" clip-rule="evenodd" d="M8.82929 19H15.1707C15.5825 20.1652 16.6938 21 18 21C19.3062 21 20.4175 20.1652 20.8293 19H23V11L20 7H16V4H1V19H3.17071C3.58254 20.1652 4.69378 21 6 21C7.30622 21 8.41746 20.1652 8.82929 19ZM14.5 5.5H2.5V17.5H3.04148C3.27952 16.0811 4.5135 15 6 15C7.4865 15 8.72048 16.0811 8.95852 17.5H14.5V5.5ZM20.9585 17.5H21.5V11.5L19.25 8.5H16V15.7639C16.5308 15.2889 17.2316 15 18 15C19.4865 15 20.7205 16.0811 20.9585 17.5ZM7.5 18C7.5 18.8284 6.82843 19.5 6 19.5C5.17157 19.5 4.5 18.8284 4.5 18C4.5 17.1716 5.17157 16.5 6 16.5C6.82843 16.5 7.5 17.1716 7.5 18ZM19.5 18C19.5 18.8284 18.8284 19.5 18 19.5C17.1716 19.5 16.5 18.8284 16.5 18C16.5 17.1716 17.1716 16.5 18 16.5C18.8284 16.5 19.5 17.1716 19.5 18Z" fill="black"/>
</svg>
