<svg width="24" height="24" viewBox="0 0 24 24" fill="none" xmlns="http://www.w3.org/2000/svg">
<path fill-rule="evenodd" clip-rule="evenodd" d="M10 3C10 1.89543 10.8954 1 12 1C13.1046 1 14 1.89543 14 3H21V22H3V3H10ZM12 2.5C12.2761 2.5 12.5 2.72386 12.5 3V4.5H15.5V5.5H8.5V4.5H11.5V3C11.5 2.72386 11.7239 2.5 12 2.5ZM7 4.5H4.5V20.5H19.5V4.5H17V7H7V4.5Z" fill="black"/>
<path fill-rule="evenodd" clip-rule="evenodd" d="M17 11.75H7V10.25H17V11.75Z" fill="black"/>
<path fill-rule="evenodd" clip-rule="evenodd" d="M14 15.75H7V14.25H14V15.75Z" fill="black"/>
</svg>
