<svg width="24" height="24" viewBox="0 0 24 24" fill="none" xmlns="http://www.w3.org/2000/svg">
<path fill-rule="evenodd" clip-rule="evenodd" d="M9.62171 10.5H7C5.067 10.5 3.5 12.067 3.5 14C3.5 15.933 5.067 17.5 7 17.5H15C18.0376 17.5 20.5 15.0376 20.5 12C20.5 8.96243 18.0376 6.5 15 6.5C12.8082 6.5 10.9129 7.78198 10.0285 9.64364L9.62171 10.5ZM22 12C22 15.866 18.866 19 15 19H7C4.23858 19 2 16.7614 2 14C2 11.2386 4.23858 9 7 9H8.67363C9.7971 6.63505 12.2076 5 15 5C18.866 5 22 8.13401 22 12Z" fill="black"/>
</svg>
